<svg width="22" height="24" viewBox="0 0 22 24" fill="none" xmlns="http://www.w3.org/2000/svg">
<path d="M11.5 24C13.1406 24 14.4531 22.6875 14.4531 21H8.5C8.5 22.6875 9.8125 24 11.5 24ZM21.5781 17.0156C20.6875 16.0312 18.9531 14.5781 18.9531 9.75C18.9531 6.14062 16.4219 3.23438 12.9531 2.48438V1.5C12.9531 0.703125 12.2969 0 11.5 0C10.6562 0 10 0.703125 10 1.5V2.48438C6.53125 3.23438 4 6.14062 4 9.75C4 14.5781 2.26562 16.0312 1.375 17.0156C1.09375 17.2969 0.953125 17.6719 1 18C1 18.7969 1.5625 19.5 2.5 19.5H20.4531C21.3906 19.5 21.9531 18.7969 22 18C22 17.6719 21.8594 17.2969 21.5781 17.0156Z" fill="black"/>
</svg>
