<svg width="28" height="25" viewBox="0 0 28 25" fill="none" xmlns="http://www.w3.org/2000/svg">
<path d="M25.375 12.5H2.625C1.14844 12.5 0 13.7031 0 15.125C0 16.6016 1.14844 17.75 2.625 17.75H25.375C26.7969 17.75 28 16.6016 28 15.125C28 13.7031 26.7969 12.5 25.375 12.5ZM26.25 19.5H1.75C1.25781 19.5 0.875 19.9375 0.875 20.375V21.25C0.875 23.2188 2.40625 24.75 4.375 24.75H23.625C25.5391 24.75 27.125 23.2188 27.125 21.25V20.375C27.125 19.9375 26.6875 19.5 26.25 19.5ZM3.17188 10.75H24.7734C26.6328 10.75 27.7266 8.39844 26.6875 6.64844C24.5 3.09375 19.6328 0.304688 14 0.25C8.3125 0.304688 3.5 3.09375 1.25781 6.64844C0.21875 8.39844 1.3125 10.75 3.17188 10.75ZM21 4.625C21.4375 4.625 21.875 5.0625 21.875 5.5C21.875 5.99219 21.4375 6.375 21 6.375C20.5078 6.375 20.125 5.99219 20.125 5.5C20.125 5.0625 20.5078 4.625 21 4.625ZM14 2.875C14.4375 2.875 14.875 3.3125 14.875 3.75C14.875 4.24219 14.4375 4.625 14 4.625C13.5078 4.625 13.125 4.24219 13.125 3.75C13.125 3.3125 13.5078 2.875 14 2.875ZM7 4.625C7.4375 4.625 7.875 5.0625 7.875 5.5C7.875 5.99219 7.4375 6.375 7 6.375C6.50781 6.375 6.125 5.99219 6.125 5.5C6.125 5.0625 6.50781 4.625 7 4.625Z" fill="white"/>
</svg>
