<svg width="28" height="26" viewBox="0 0 28 26" fill="none" xmlns="http://www.w3.org/2000/svg">
<path d="M26.5938 1.46875C26.3125 0.90625 25.5625 0.859375 25.2344 1.42188C23.7812 3.95312 21.2031 5.5 18.25 5.5H14.5C9.53125 5.5 5.5 9.53125 5.5 14.5C5.5 14.8281 5.5 15.1562 5.54688 15.4844C8.54688 13.3281 12.8594 11.5 19 11.5C19.375 11.5 19.75 11.875 19.75 12.25C19.75 12.6719 19.375 13 19 13C7.1875 13 2.21875 20.2656 1.09375 22.9375C0.765625 23.7344 1.14062 24.5781 1.89062 24.9062C2.6875 25.2344 3.53125 24.8594 3.85938 24.1094C3.95312 23.9219 4.84375 21.8594 7.23438 19.8438C8.78125 21.9062 11.6406 23.875 15.4375 23.4531C22.7969 22.9375 28 16.3281 28 8.26562C28 5.92188 27.4844 3.48438 26.5938 1.46875Z" fill="white"/>
</svg>
