<svg width="37" height="33" viewBox="0 0 37 33" fill="none" xmlns="http://www.w3.org/2000/svg">
<path d="M33.125 32.25C34.9531 32.25 36.5 30.7734 36.5 28.875V4.125C36.5 2.29688 34.9531 0.75 33.125 0.75H3.875C1.97656 0.75 0.5 2.29688 0.5 4.125V28.875C0.5 30.7734 1.97656 32.25 3.875 32.25H33.125ZM9.5 6.9375C11.0469 6.9375 12.3125 8.20312 12.3125 9.75C12.3125 11.3672 11.0469 12.5625 9.5 12.5625C7.88281 12.5625 6.6875 11.3672 6.6875 9.75C6.6875 8.20312 7.88281 6.9375 9.5 6.9375ZM9.5 13.6875C11.0469 13.6875 12.3125 14.9531 12.3125 16.5C12.3125 18.1172 11.0469 19.3125 9.5 19.3125C7.88281 19.3125 6.6875 18.1172 6.6875 16.5C6.6875 14.9531 7.88281 13.6875 9.5 13.6875ZM9.5 20.4375C11.0469 20.4375 12.3125 21.7031 12.3125 23.25C12.3125 24.8672 11.0469 26.0625 9.5 26.0625C7.88281 26.0625 6.6875 24.8672 6.6875 23.25C6.6875 21.7031 7.88281 20.4375 9.5 20.4375ZM29.75 10.875C29.75 11.3672 29.3281 11.7188 28.9062 11.7188H14.8438C14.3516 11.7188 14 11.3672 14 10.875V8.625C14 8.20312 14.3516 7.78125 14.8438 7.78125H28.9062C29.3281 7.78125 29.75 8.20312 29.75 8.625V10.875ZM29.75 17.625C29.75 18.1172 29.3281 18.4688 28.9062 18.4688H14.8438C14.3516 18.4688 14 18.1172 14 17.625V15.375C14 14.9531 14.3516 14.5312 14.8438 14.5312H28.9062C29.3281 14.5312 29.75 14.9531 29.75 15.375V17.625ZM29.75 24.375C29.75 24.8672 29.3281 25.2188 28.9062 25.2188H14.8438C14.3516 25.2188 14 24.8672 14 24.375V22.125C14 21.7031 14.3516 21.2812 14.8438 21.2812H28.9062C29.3281 21.2812 29.75 21.7031 29.75 22.125V24.375Z" fill="black"/>
</svg>
