<svg width="33" height="29" viewBox="0 0 33 29" fill="none" xmlns="http://www.w3.org/2000/svg">
<path d="M1.875 5.78125H31.125C31.6875 5.78125 32.25 5.28906 32.25 4.65625V1.84375C32.25 1.28125 31.6875 0.71875 31.125 0.71875H1.875C1.24219 0.71875 0.75 1.28125 0.75 1.84375V4.65625C0.75 5.28906 1.24219 5.78125 1.875 5.78125ZM1.875 17.0312H31.125C31.6875 17.0312 32.25 16.5391 32.25 15.9062V13.0938C32.25 12.5312 31.6875 11.9688 31.125 11.9688H1.875C1.24219 11.9688 0.75 12.5312 0.75 13.0938V15.9062C0.75 16.5391 1.24219 17.0312 1.875 17.0312ZM1.875 28.2812H31.125C31.6875 28.2812 32.25 27.7891 32.25 27.1562V24.3438C32.25 23.7812 31.6875 23.2188 31.125 23.2188H1.875C1.24219 23.2188 0.75 23.7812 0.75 24.3438V27.1562C0.75 27.7891 1.24219 28.2812 1.875 28.2812Z" fill="black"/>
</svg>
